# Blender v2.77 (sub 0) OBJ File: ''
# www.blender.org
mtllib Flying Gold Item Box (MAX Air).mtl
o Mesh_0122.001
v 0.187718 1.600887 -0.325137
v -0.187718 1.600887 -0.325137
v 0.000000 1.535186 0.000000
v -0.375436 1.600887 0.000000
v -0.187718 1.600887 0.325138
v 0.187718 1.600887 0.325138
v 0.375436 1.600887 0.000000
v 0.165325 0.196119 0.286351
v -0.165325 0.196119 0.286351
v 0.000000 0.253982 0.000000
v -0.330650 0.196119 0.000000
v -0.165325 0.196119 -0.286351
v 0.165325 0.196119 -0.286351
v 0.330650 0.196119 0.000000
v -0.204890 0.183517 -0.354881
v 0.204890 0.183517 -0.354881
v -0.312662 0.460458 -0.541546
v 0.312662 0.460458 -0.541546
v -0.367473 0.867618 -0.636482
v 0.367473 0.867618 -0.636482
v -0.364930 1.185425 -0.632077
v 0.364930 1.185425 -0.632077
v -0.311328 1.439600 -0.539235
v 0.311327 1.439600 -0.539235
v -0.219350 1.617646 -0.379925
v 0.219350 1.617646 -0.379925
v 0.409781 0.183517 0.000000
v 0.625323 0.460458 0.000000
v 0.734947 0.867617 0.000000
v 0.729859 1.185424 0.000000
v 0.622655 1.439600 0.000000
v 0.438700 1.617646 0.000000
v 0.204890 0.183517 0.354881
v 0.312662 0.460458 0.541546
v 0.367473 0.867617 0.636482
v 0.364930 1.185424 0.632077
v 0.311328 1.439600 0.539235
v 0.219350 1.617646 0.379926
v -0.204890 0.183517 0.354881
v -0.312661 0.460458 0.541546
v -0.367473 0.867617 0.636483
v -0.364930 1.185424 0.632077
v -0.311327 1.439600 0.539235
v -0.219350 1.617646 0.379926
v -0.409781 0.183517 0.000000
v -0.625323 0.460458 0.000000
v -0.734947 0.867617 0.000000
v -0.729860 1.185424 0.000000
v -0.622655 1.439600 0.000000
v -0.438700 1.617646 0.000000
v 0.224131 1.642050 -0.388207
v 0.448263 1.642050 0.000000
v 0.175169 1.776000 -0.303401
v 0.350337 1.776000 0.000000
v -0.224131 1.642050 -0.388207
v -0.175169 1.776000 -0.303401
v -0.448263 1.642050 0.000000
v -0.350338 1.776000 0.000000
v -0.224131 1.642050 0.388207
v -0.175169 1.776000 0.303402
v 0.224131 1.642050 0.388207
v 0.175169 1.776000 0.303402
v -0.187718 1.600887 0.325138
v 0.187718 1.600887 0.325138
v 0.375436 1.600887 0.000000
v 0.425345 0.159866 0.000000
v 0.212673 0.159866 0.368360
v 0.330650 0.196119 0.000000
v 0.165325 0.196119 0.286351
v -0.212673 0.159866 0.368360
v -0.165325 0.196119 0.286351
v -0.212673 0.159866 -0.368360
v 0.212673 0.159866 -0.368360
v -0.165325 0.196119 -0.286351
v 0.165325 0.196119 -0.286351
v 0.187718 1.600887 -0.325137
v -0.187718 1.600887 -0.325137
v -0.375436 1.600887 0.000000
v 0.087584 1.818107 -0.151700
v -0.087584 1.818107 -0.151700
v -0.175169 1.818107 0.000000
v -0.087584 1.818107 0.151701
v 0.087584 1.818107 0.151701
v 0.175169 1.818107 0.000000
v 0.000000 1.840336 0.000000
v 0.184124 0.068844 0.318913
v 0.368249 0.068844 0.000000
v -0.184124 0.068844 0.318913
v -0.425345 0.159866 0.000000
v -0.368249 0.068844 0.000000
v -0.184124 0.068844 -0.318913
v 0.184124 0.068844 -0.318913
v -0.330650 0.196119 0.000000
v 0.092062 0.019879 0.159456
v -0.092062 0.019879 0.159456
v -0.184124 0.019879 0.000000
v -0.092062 0.019879 -0.159456
v 0.092062 0.019879 -0.159456
v 0.184124 0.019879 0.000000
v 0.000000 -0.003487 -0.000000
v 0.411281 0.473850 0.001097
v -0.411281 0.473850 0.001097
v 0.411281 1.207043 0.001097
v -0.411281 1.207044 0.001097
v 0.411281 0.473850 -0.001097
v 0.411281 1.207043 -0.001096
v -0.411281 0.473850 -0.001097
v -0.411281 1.207044 -0.001096
vt 1.0000 0.0000
vt 1.0000 1.0000
vt 0.0000 0.0000
vt 0.0000 1.0000
vt 0.0000 0.0000
vt 1.0000 0.0000
vt 0.0000 1.0000
vt 1.0000 1.0000
vt 0.7500 1.0000
vt 0.5000 0.5000
vt 0.2500 1.0000
vt 0.0000 0.5000
vt 0.2500 0.0000
vt 0.7500 0.0000
vt 1.0000 0.5000
vt 0.7500 1.0000
vt 0.5000 0.5000
vt 0.2500 1.0000
vt 0.0000 0.5000
vt 0.2500 0.0000
vt 0.7500 0.0000
vt 1.0000 0.5000
vt 0.9922 0.5195
vt 0.9922 0.9922
vt 0.7539 0.5195
vt 0.7539 0.9922
vt 0.9922 0.5195
vt 0.9922 0.9922
vt 0.7539 0.5195
vt 0.7539 0.9922
vt 0.9922 0.5195
vt 0.9922 0.9922
vt 0.7539 0.5195
vt 0.7539 0.9922
vt 0.9922 0.5195
vt 0.9922 0.9922
vt 0.7539 0.5195
vt 0.7539 0.9922
vt 0.9922 0.5195
vt 0.9922 0.9922
vt 0.7539 0.5195
vt 0.7539 0.9922
vt 0.9922 0.5195
vt 0.9922 0.9922
vt 0.7539 0.5195
vt 0.7539 0.9922
vt 0.0039 0.5039
vt 0.0039 0.9922
vt 0.4961 0.5039
vt 0.4961 0.9922
vt 0.0039 0.5039
vt 0.0039 0.9922
vt 0.4961 0.5039
vt 0.4961 0.9922
vt 0.0039 0.5039
vt 0.0039 0.9922
vt 0.4961 0.5039
vt 0.4961 0.9922
vt 0.0039 0.5039
vt 0.0039 0.9922
vt 0.4961 0.5039
vt 0.4961 0.9922
vt 0.0039 0.5039
vt 0.0039 0.9922
vt 0.4961 0.5039
vt 0.4961 0.9922
vt 0.0039 0.5039
vt 0.0039 0.9922
vt 0.4961 0.5039
vt 0.4961 0.9922
vt 0.0039 0.5039
vt 0.0039 0.9922
vt 0.4961 0.5039
vt 0.4961 0.9922
vt 0.0039 0.5039
vt 0.0039 0.9922
vt 0.4961 0.5039
vt 0.4961 0.9922
vt 0.8711 0.9805
vt 0.7578 0.9805
vt 0.8125 0.9766
vt 0.8125 0.9727
vt 0.7578 0.9727
vt 0.8711 0.9727
vt 0.8711 0.9688
vt 0.9297 0.9727
vt 0.9883 0.9727
vt 0.9297 0.9766
vt 0.9883 0.9805
vt 0.8711 0.9805
vt 0.8711 0.9766
vt 0.9922 0.5195
vt 0.9922 0.9922
vt 0.7539 0.5195
vt 0.7539 0.9922
vt 0.9922 0.5195
vt 0.9922 0.9922
vt 0.7539 0.5195
vt 0.7539 0.9922
vt 0.9922 0.5195
vt 0.9922 0.9922
vt 0.7539 0.5195
vt 0.7539 0.9922
vt 0.9922 0.5195
vt 0.9922 0.9922
vt 0.7539 0.5195
vt 0.7539 0.9922
vt 0.9922 0.5195
vt 0.9922 0.9922
vt 0.7539 0.5195
vt 0.7539 0.9922
vt 0.9922 0.5195
vt 0.9922 0.9922
vt 0.7539 0.5195
vt 0.7539 0.9922
vt 0.0039 0.5039
vt 0.0039 0.9922
vt 0.4961 0.5039
vt 0.4961 0.9922
vt 0.0039 0.5039
vt 0.0039 0.9922
vt 0.4961 0.5039
vt 0.4961 0.9922
vt 0.8711 0.9805
vt 0.7578 0.9805
vt 0.8125 0.9766
vt 0.8125 0.9727
vt 0.7578 0.9727
vt 0.8711 0.9727
vt 0.8711 0.9688
vt 0.9297 0.9727
vt 0.9883 0.9727
vt 0.9297 0.9766
vt 0.9883 0.9805
vt 0.8711 0.9805
vt 0.8711 0.9766
vt 1.0820 0.0000
vt 1.0820 0.2578
vt 0.9180 0.0000
vt 0.9180 0.2578
vt 1.0820 0.4961
vt 0.9180 0.4961
vt 1.0820 0.6992
vt 0.9180 0.6992
vt 1.0820 0.8828
vt 0.9180 0.8828
vt 1.0820 1.0000
vt 0.9180 1.0000
vt 0.7500 0.0000
vt 0.7500 0.2578
vt 0.7500 0.4961
vt 0.7500 0.6992
vt 0.7500 0.8828
vt 0.7500 1.0000
vt 0.5820 0.0000
vt 0.5820 0.2578
vt 0.5820 0.4961
vt 0.5820 0.6992
vt 0.5820 0.8828
vt 0.5820 1.0000
vt 0.4180 0.0000
vt 0.4180 0.2578
vt 0.4180 0.4961
vt 0.4180 0.6992
vt 0.4180 0.8828
vt 0.4180 1.0000
vt 0.2500 0.0000
vt 0.2500 0.2578
vt 0.2500 0.4961
vt 0.2500 0.6992
vt 0.2500 0.8828
vt 0.2500 1.0000
vt 0.0820 0.0000
vt 0.0820 0.2578
vt 0.0820 0.4961
vt 0.0820 0.6992
vt 0.0820 0.8828
vt 0.0820 1.0000
vn 0.0000 -0.0000 1.0000
vn 0.0000 0.0000 -1.0000
vn 0.0000 -0.9802 -0.1981
vn -0.1156 -0.9392 -0.3232
vn -0.1715 -0.9802 -0.0990
vn -0.2319 -0.9701 -0.0718
vn -0.1724 -0.9850 -0.0000
vn -0.1715 -0.9802 0.0990
vn 0.0000 -0.9802 0.1981
vn 0.1156 -0.9392 0.3232
vn 0.1715 -0.9802 0.0990
vn 0.2319 -0.9701 0.0718
vn 0.1724 -0.9850 0.0000
vn 0.1715 -0.9802 -0.0990
vn 0.0000 0.9802 0.1981
vn -0.1156 0.9910 0.0668
vn -0.0862 0.9850 0.1493
vn -0.1724 0.9850 0.0000
vn -0.1715 0.9802 -0.0990
vn 0.0000 0.9802 -0.1981
vn 0.1156 0.9910 -0.0668
vn 0.0862 0.9850 -0.1493
vn 0.1724 0.9850 0.0000
vn 0.1715 0.9802 0.0990
vn 0.7317 0.5349 -0.4225
vn 0.7317 0.5349 -0.4224
vn 0.0000 0.5349 -0.8449
vn -0.7317 0.5349 -0.4225
vn -0.7317 0.5349 0.4225
vn -0.7317 0.5349 0.4224
vn 0.0000 0.5349 0.8449
vn 0.7317 0.5349 0.4225
vn 0.0000 -0.8374 0.5466
vn -0.0001 -0.6562 0.7546
vn 0.4733 -0.8374 0.2733
vn 0.6535 -0.6562 0.3772
vn 0.3502 0.9146 0.2022
vn 0.3136 0.9495 0.0054
vn 0.3501 0.9146 0.2022
vn 0.1788 0.9339 0.3096
vn 0.1782 0.9363 0.3027
vn 0.0000 0.9146 0.4043
vn 0.0000 0.9146 -0.4043
vn -0.0000 0.8140 -0.5809
vn 0.3501 0.9146 -0.2022
vn 0.5030 0.8140 -0.2904
vn 0.3502 0.9146 -0.2022
vn 0.4733 -0.8374 -0.2733
vn 0.4486 -0.8937 -0.0043
vn 0.2460 -0.8706 -0.4261
vn 0.2479 -0.8733 -0.4193
vn 0.0000 -0.8374 -0.5466
vn -0.4733 -0.8374 -0.2733
vn -0.4733 -0.8374 0.2733
vn 0.2316 0.9636 -0.1337
vn 0.1169 0.9723 -0.2024
vn 0.0994 0.9721 -0.2124
vn -0.1169 0.9723 -0.2024
vn -0.2337 0.9723 0.0000
vn -0.1169 0.9723 0.2024
vn 0.1169 0.9723 0.2024
vn 0.2316 0.9636 0.1337
vn 0.1572 0.9834 0.0908
vn 0.1457 0.9891 0.0221
vn 0.0977 0.9886 -0.1144
vn 0.1963 0.9740 -0.1134
vn 0.0000 0.9953 -0.0972
vn -0.0629 0.9920 -0.1090
vn -0.1256 0.9894 -0.0725
vn -0.1256 0.9894 0.0725
vn -0.0629 0.9920 0.1090
vn 0.0000 0.9953 0.0972
vn 0.0629 0.9920 0.1090
vn 0.1256 0.9894 0.0725
vn 0.7610 -0.4774 0.4394
vn 0.7610 -0.4773 0.4394
vn 0.0000 -0.4774 0.8787
vn -0.7610 -0.4774 0.4394
vn -0.7610 -0.4774 -0.4394
vn 0.0000 -0.4774 -0.8787
vn 0.7610 -0.4774 -0.4394
vn -0.3501 0.9146 0.2022
vn -0.3502 0.9146 0.2022
vn -0.3502 0.9146 -0.2022
vn -0.3501 0.9146 -0.2022
vn 0.2542 -0.9559 0.1468
vn 0.1285 -0.9664 0.2226
vn 0.1091 -0.9662 0.2337
vn -0.1285 -0.9664 0.2226
vn -0.2570 -0.9664 0.0000
vn -0.1285 -0.9664 -0.2226
vn 0.1285 -0.9664 -0.2226
vn 0.2542 -0.9559 -0.1468
vn 0.1731 -0.9798 -0.1000
vn 0.1607 -0.9867 -0.0246
vn 0.1026 -0.9878 0.1172
vn 0.2115 -0.9697 0.1221
vn 0.0000 -0.9953 0.0972
vn -0.0629 -0.9920 0.1090
vn -0.1256 -0.9894 0.0725
vn -0.1256 -0.9894 -0.0725
vn -0.0629 -0.9920 -0.1090
vn 0.0000 -0.9953 -0.0972
vn 0.0629 -0.9920 -0.1090
vn 0.1256 -0.9894 -0.0725
vn 0.0000 -0.5589 -0.8292
vn 0.2010 -0.5912 -0.7811
vn 0.0639 -0.3413 -0.9378
vn 0.0000 -0.4643 -0.8857
vn 0.1151 -0.2754 -0.9544
vn 0.0000 -0.2271 -0.9739
vn 0.0486 -0.0791 -0.9957
vn 0.0000 -0.1025 -0.9947
vn 0.0000 0.1695 -0.9855
vn 0.0000 0.0785 -0.9969
vn 0.1282 0.2608 -0.9568
vn 0.0000 0.3431 -0.9393
vn 0.1089 0.5114 -0.8524
vn -0.0859 0.4253 -0.9010
vn 0.0000 0.6668 -0.7452
vn -0.2240 0.6591 -0.7179
vn 0.7181 -0.5589 -0.4146
vn 0.7769 -0.5912 -0.2165
vn 0.8441 -0.3413 -0.4135
vn 0.8031 -0.3742 -0.4637
vn 0.8615 -0.1025 -0.4974
vn 0.8527 -0.1746 -0.4923
vn 0.9273 -0.0495 -0.3709
vn 0.8659 0.0139 -0.5000
vn 0.8893 0.2088 -0.4069
vn 0.8535 0.1695 -0.4928
vn 0.7585 0.4826 -0.4379
vn 0.7373 0.4253 -0.5249
vn 0.6454 0.6668 -0.3726
vn 0.5097 0.6591 -0.5529
vn 0.7181 -0.5589 0.4146
vn 0.5760 -0.5912 0.5646
vn 0.7802 -0.3413 0.5242
vn 0.8031 -0.3742 0.4637
vn 0.8615 -0.1025 0.4974
vn 0.8535 0.1695 0.4928
vn 0.7585 0.4826 0.4379
vn 0.8232 0.4253 0.3761
vn 0.6454 0.6668 0.3726
vn 0.7338 0.6591 0.1650
vn 0.0000 -0.5589 0.8292
vn -0.2010 -0.5912 0.7811
vn -0.0639 -0.3413 0.9378
vn 0.0000 -0.3742 0.9273
vn 0.0000 -0.1025 0.9947
vn 0.0000 0.1695 0.9855
vn 0.0000 0.4826 0.8758
vn 0.0859 0.4253 0.9010
vn 0.0000 0.6668 0.7452
vn 0.2240 0.6591 0.7179
vn -0.7181 -0.5589 0.4146
vn -0.7769 -0.5912 0.2165
vn -0.8441 -0.3413 0.4135
vn -0.8031 -0.3742 0.4637
vn -0.8615 -0.1025 0.4974
vn -0.8535 0.1695 0.4928
vn -0.7585 0.4826 0.4379
vn -0.7373 0.4253 0.5249
vn -0.6454 0.6668 0.3726
vn -0.5097 0.6591 0.5530
vn -0.7181 -0.5589 -0.4146
vn -0.5760 -0.5912 -0.5646
vn -0.7802 -0.3413 -0.5242
vn -0.8031 -0.3742 -0.4637
vn -0.8615 -0.1025 -0.4974
vn -0.8535 0.1695 -0.4928
vn -0.7585 0.4826 -0.4379
vn -0.8232 0.4253 -0.3761
vn -0.6454 0.6668 -0.3726
vn -0.7338 0.6591 -0.1650
usemtl Tex_0060_0_dds.001
s 1
f 101/1/1 103/2/1 102/3/1
f 102/3/1 103/2/1 104/4/1
f 105/5/2 107/6/2 106/7/2
f 106/7/2 107/6/2 108/8/2
usemtl Tex_0059_0_dds.001
f 1/9/3 3/10/4 2/11/3
f 2/11/5 3/10/6 4/12/7
f 3/10/6 5/13/8 4/12/7
f 5/13/9 3/10/10 6/14/9
f 6/14/11 3/10/12 7/15/13
f 3/10/12 1/9/14 7/15/13
f 8/16/15 10/17/16 9/18/17
f 9/18/17 10/17/16 11/19/18
f 10/17/16 12/20/19 11/19/18
f 12/20/20 10/17/21 13/21/22
f 13/21/22 10/17/21 14/22/23
f 10/17/21 8/16/24 14/22/23
usemtl Tex_0058_0_dds.001
f 51/23/25 53/24/25 52/25/26
f 52/25/26 53/24/25 54/26/26
f 55/27/27 56/28/27 51/29/27
f 51/29/27 56/28/27 53/30/27
f 57/31/28 58/32/28 55/33/28
f 55/33/28 58/32/28 56/34/28
f 59/35/29 60/36/29 57/37/29
f 57/37/29 60/36/29 58/38/30
f 61/39/31 62/40/31 59/41/31
f 59/41/31 62/40/31 60/42/31
f 52/43/32 54/44/32 61/45/32
f 61/45/32 54/44/32 62/46/32
f 59/47/33 63/48/33 61/49/33
f 63/48/33 64/50/34 61/49/33
f 61/49/35 64/50/36 52/51/35
f 64/50/36 65/52/35 52/51/35
f 66/53/37 68/54/37 67/55/38
f 68/54/39 69/56/40 67/55/41
f 67/55/41 69/56/40 70/57/42
f 69/56/40 71/58/42 70/57/42
f 72/59/43 74/60/43 73/61/43
f 74/60/43 75/62/44 73/61/43
f 73/61/45 75/62/46 66/63/47
f 75/62/46 68/64/47 66/63/47
f 52/65/48 65/66/48 51/67/49
f 65/66/48 76/68/50 51/67/51
f 51/67/51 76/68/50 55/69/52
f 76/68/50 77/70/52 55/69/52
f 55/71/53 77/72/53 57/73/53
f 57/73/53 77/72/53 78/74/53
f 57/75/54 78/76/54 59/77/54
f 59/77/54 78/76/54 63/78/54
f 54/79/55 53/80/56 79/81/57
f 79/81/57 53/80/56 80/82/58
f 53/80/56 56/83/58 80/82/58
f 80/82/58 56/83/58 81/84/59
f 56/83/58 58/85/59 81/84/59
f 81/84/59 58/85/59 82/86/60
f 58/85/59 60/87/60 82/86/60
f 82/86/60 60/87/60 83/88/61
f 60/87/60 62/89/61 83/88/61
f 83/88/61 62/89/61 84/90/62
f 62/89/61 54/79/63 84/90/62
f 54/79/64 79/81/65 84/90/66
f 84/90/66 79/81/65 85/91/67
f 79/81/65 80/82/68 85/91/67
f 85/91/67 80/82/68 81/84/69
f 81/84/70 82/86/71 85/91/72
f 82/86/71 83/88/73 85/91/72
f 85/91/72 83/88/73 84/90/74
f 67/92/75 86/93/75 66/94/75
f 66/94/75 86/93/75 87/95/76
f 70/96/77 88/97/77 67/98/77
f 67/98/77 88/97/77 86/99/77
f 89/100/78 90/101/78 70/102/78
f 70/102/78 90/101/78 88/103/78
f 72/104/79 91/105/79 89/106/79
f 89/106/79 91/105/79 90/107/79
f 73/108/80 92/109/80 72/110/80
f 72/110/80 92/109/80 91/111/80
f 66/112/81 87/113/81 73/114/81
f 73/114/81 87/113/81 92/115/81
f 70/116/82 71/117/82 89/118/82
f 89/118/83 71/117/83 93/119/83
f 89/120/84 93/121/84 72/122/84
f 72/122/85 93/121/85 74/123/85
f 87/124/86 86/125/87 94/126/88
f 94/126/88 86/125/87 95/127/89
f 86/125/87 88/128/89 95/127/89
f 95/127/89 88/128/89 96/129/90
f 88/128/89 90/130/90 96/129/90
f 96/129/90 90/130/90 97/131/91
f 90/130/90 91/132/91 97/131/91
f 97/131/91 91/132/91 98/133/92
f 91/132/91 92/134/92 98/133/92
f 98/133/92 92/134/92 99/135/93
f 92/134/92 87/124/94 99/135/93
f 87/124/95 94/126/96 99/135/97
f 99/135/97 94/126/96 100/136/98
f 94/126/96 95/127/99 100/136/98
f 100/136/98 95/127/99 96/129/100
f 96/129/101 97/131/102 100/136/103
f 97/131/102 98/133/104 100/136/103
f 100/136/103 98/133/104 99/135/105
usemtl Tex_0061_0_dds.001
f 15/137/106 17/138/107 16/139/106
f 16/139/106 17/138/108 18/140/109
f 17/138/108 19/141/110 18/140/109
f 18/140/111 19/141/112 20/142/113
f 19/141/112 21/143/114 20/142/113
f 20/142/113 21/143/114 22/144/115
f 21/143/114 23/145/116 22/144/115
f 22/144/117 23/145/118 24/146/119
f 23/145/118 25/147/120 24/146/119
f 24/146/121 25/147/120 26/148/120
f 16/139/122 18/140/123 27/149/122
f 27/149/122 18/140/124 28/150/125
f 18/140/124 20/142/126 28/150/125
f 28/150/125 20/142/126 29/151/127
f 20/142/126 22/144/128 29/151/127
f 29/151/129 22/144/130 30/152/131
f 22/144/130 24/146/132 30/152/131
f 30/152/131 24/146/132 31/153/133
f 24/146/132 26/148/134 31/153/133
f 31/153/135 26/148/134 32/154/134
f 27/149/136 28/150/137 33/155/136
f 33/155/136 28/150/138 34/156/139
f 28/150/138 29/151/140 34/156/139
f 34/156/139 29/151/140 35/157/140
f 29/151/140 30/152/141 35/157/140
f 35/157/140 30/152/141 36/158/141
f 30/152/141 31/153/142 36/158/141
f 36/158/141 31/153/142 37/159/143
f 31/153/142 32/154/144 37/159/143
f 37/159/145 32/154/144 38/160/144
f 33/155/146 34/156/147 39/161/146
f 39/161/146 34/156/148 40/162/149
f 34/156/148 35/157/150 40/162/149
f 40/162/149 35/157/150 41/163/150
f 35/157/150 36/158/151 41/163/150
f 41/163/150 36/158/151 42/164/151
f 36/158/151 37/159/152 42/164/151
f 42/164/151 37/159/152 43/165/153
f 37/159/152 38/160/154 43/165/153
f 43/165/155 38/160/154 44/166/154
f 39/161/156 40/162/157 45/167/156
f 45/167/156 40/162/158 46/168/159
f 40/162/158 41/163/160 46/168/159
f 46/168/159 41/163/160 47/169/160
f 41/163/160 42/164/161 47/169/160
f 47/169/160 42/164/161 48/170/161
f 42/164/161 43/165/162 48/170/161
f 48/170/161 43/165/162 49/171/163
f 43/165/162 44/166/164 49/171/163
f 49/171/165 44/166/164 50/172/164
f 45/167/166 46/168/167 15/173/166
f 15/173/166 46/168/168 17/174/169
f 46/168/168 47/169/170 17/174/169
f 17/174/169 47/169/170 19/175/170
f 47/169/170 48/170/171 19/175/170
f 19/175/170 48/170/171 21/176/171
f 48/170/171 49/171/172 21/176/171
f 21/176/171 49/171/172 23/177/173
f 49/171/172 50/172/174 23/177/173
f 23/177/175 50/172/174 25/178/174
