# Blender v2.75 (sub 0) OBJ File: ''
# www.blender.org
mtllib item box ground.mtl
o object_004BF28C
v 2.787750 0.000001 -4.828526
v 5.575500 0.000000 0.000000
v 0.000000 0.000000 0.000000
v -2.787751 0.000001 -4.828526
v -5.575500 -0.000000 0.000001
v -2.787750 -0.000001 4.828526
v 2.787752 -0.000001 4.828525
v -4.869504 -0.017314 -1.137095
v -6.332932 -0.017314 -2.501620
v -3.419505 -0.017313 -3.648568
v -5.332932 -0.017313 -4.233671
v 1.450000 -0.017315 4.785662
v 1.000000 -0.017315 6.735290
v -1.450000 -0.017315 4.785662
v -1.000000 -0.017315 6.735290
v 3.419505 -0.017313 -3.648568
v 5.332932 -0.017313 -4.233671
v 4.869504 -0.017314 -1.137095
v 6.332932 -0.017314 -2.501620
v 2.406664 2.615517 -4.168466
v 4.813330 2.615516 0.000000
v -2.406665 2.615517 -4.168466
v -4.813330 2.615516 0.000001
v -2.406664 2.615515 4.168467
v 2.406666 2.615515 4.168466
v 0.000000 3.811493 0.000001
v -0.975000 1.090683 4.391457
v -1.000000 0.736231 6.161777
v 0.975000 1.090683 4.391457
v 1.000000 0.736231 6.161777
v 4.290613 1.090684 -1.351354
v 5.836256 0.736232 -2.214864
v -4.836256 0.736233 -3.946915
v -5.836256 0.736232 -2.214864
v 3.315613 1.090685 -3.040103
v 4.836256 0.736233 -3.946915
v -3.315613 1.090685 -3.040103
v -4.290613 1.090684 -1.351354
vt 0.901961 -0.027451
vt 0.062745 -0.027451
vt 0.968628 -1.000000
vt 0.000000 -1.000000
vt 0.921569 -1.000000
vt 0.960784 -0.439216
vt 0.129412 -0.615686
vt 0.000000 -0.603922
vt 0.968628 -0.603922
vt 0.000000 -0.027451
vt 0.968628 -0.027451
vt 0.482353 -0.027451
vt 0.482353 -0.996078
vt 0.858823 -0.027451
vt 0.137255 -0.027451
vn 0.333300 0.745400 -0.577300
vn 0.666700 0.745400 -0.000000
vn 0.371700 -0.668800 -0.643900
vn 0.743500 -0.668800 -0.000000
vn -0.333300 0.745400 -0.577300
vn -0.371800 -0.668800 -0.643900
vn -0.666700 0.745400 0.000000
vn -0.743500 -0.668800 0.000000
vn -0.333300 0.745400 0.577300
vn -0.371700 -0.668800 0.643900
vn 0.333300 0.745400 0.577300
vn 0.371800 -0.668800 0.643900
vn -0.801300 -0.586800 0.116800
vn -0.708600 -0.062700 0.702900
vn -0.576100 0.791400 0.204300
vn -0.391800 0.790600 0.470500
vn 0.801200 -0.586800 0.116800
vn 0.576200 0.791400 0.204300
vn 0.708500 -0.062700 0.702900
vn 0.391800 0.790600 0.470500
vn 0.501800 -0.586800 0.635500
vn 0.963000 -0.062600 0.262200
vn 0.465000 0.791400 0.396800
vn 0.603400 0.790600 0.104100
vn -0.211500 0.790600 -0.574600
vn -0.254400 -0.062700 -0.965100
vn -0.603400 0.790600 0.104100
vn -0.963000 -0.062700 0.262200
vn -0.299500 -0.586800 -0.752300
vn -0.111200 0.791400 -0.601100
vn 0.254400 -0.062700 -0.965100
vn 0.211500 0.790600 -0.574600
vn 0.299500 -0.586900 -0.752300
vn 0.111200 0.791400 -0.601100
vn -0.501800 -0.586800 0.635500
vn -0.465000 0.791400 0.396800
vn -0.000000 1.000000 0.000000
vn -0.000000 -1.000000 -0.000000
usemtl object_004BF28C_material_16
s 1
f 20/1/1 21/2/2 1/3/3
f 1/3/3 21/2/2 2/4/4
f 22/1/5 20/2/1 4/3/6
f 4/3/6 20/2/1 1/4/3
f 23/1/7 22/2/5 5/3/8
f 5/3/8 22/2/5 4/4/6
f 24/1/9 23/2/7 6/3/10
f 6/3/10 23/2/7 5/4/8
f 25/1/11 24/2/9 7/3/12
f 7/3/12 24/2/9 6/4/10
f 21/1/2 25/2/11 2/3/4
f 2/3/4 25/2/11 7/4/12
usemtl object_004BF28C_material_15
f 14/5/13 15/4/14 27/6/15
f 27/6/15 15/4/14 28/7/16
f 12/5/17 29/6/18 13/4/19
f 13/4/19 29/6/18 30/7/20
f 28/8/16 15/4/14 30/9/20
f 30/9/20 15/4/14 13/3/19
f 18/5/21 19/4/22 31/6/23
f 31/6/23 19/4/22 32/7/24
f 33/8/25 11/4/26 34/9/27
f 34/9/27 11/4/26 9/3/28
f 16/5/29 35/6/30 17/4/31
f 17/4/31 35/6/30 36/7/32
f 32/8/24 19/4/22 36/9/32
f 36/9/32 19/4/22 17/3/31
f 10/5/33 11/4/26 37/6/34
f 37/6/34 11/4/26 33/7/25
f 8/5/35 38/6/36 9/4/28
f 9/4/28 38/6/36 34/7/27
f 36/8/32 35/10/30 32/9/24
f 32/9/24 35/10/30 31/11/23
f 34/8/27 38/10/36 33/9/25
f 33/9/25 38/10/36 37/11/34
f 30/8/20 29/10/18 28/9/16
f 28/9/16 29/10/18 27/11/15
usemtl object_004BF28C_material_14
f 21/4/2 20/3/1 26/12/37
f 23/4/7 24/3/9 26/12/37
f 26/12/37 20/4/1 22/3/5
f 22/4/5 23/3/7 26/12/37
f 26/12/37 24/4/9 25/3/11
f 25/4/11 21/3/2 26/12/37
usemtl object_004BF28C_material_12
f 1/11/3 2/10/4 3/13/38
f 4/11/6 1/10/3 3/13/38
f 5/11/8 4/10/6 3/13/38
f 6/11/10 5/10/8 3/13/38
f 7/11/12 6/10/10 3/13/38
f 2/11/4 7/10/12 3/13/38
f 8/3/35 9/14/28 10/4/33
f 10/4/33 9/14/28 11/15/26
f 12/3/17 13/14/19 14/4/13
f 14/4/13 13/14/19 15/15/14
f 16/3/29 17/14/31 18/4/21
f 18/4/21 17/14/31 19/15/22
o object_004BE64C
v 1.539140 14.423760 2.665867
v 3.078277 14.423760 0.000002
v 0.000000 15.000000 0.000002
v 1.539138 14.423760 -2.665864
v -1.539139 14.423760 -2.665864
v -1.539138 14.423760 2.665868
v -3.078277 14.423760 0.000002
v 2.188329 13.191489 3.790295
v 4.376655 13.191490 0.000002
v 2.188327 13.191491 -3.790292
v -2.188328 13.191491 -3.790292
v -2.188326 13.191489 3.790296
v -4.376655 13.191490 0.000003
v 0.000000 12.203900 0.000002
vt 0.968628 -1.000000
vt 0.000000 -1.000000
vt 0.482353 -0.027451
vt 0.141177 -0.337255
vt 0.823529 -0.337255
vt 0.000000 -0.996078
vt 0.968628 -0.996078
vn -0.473100 -0.323800 -0.819400
vn 0.473100 -0.323800 -0.819400
vn -0.000000 -1.000000 -0.000000
vn 0.473100 -0.323800 0.819400
vn -0.473100 -0.323800 0.819400
vn 0.946100 -0.323800 -0.000000
vn -0.946100 -0.323800 0.000000
vn 0.222900 0.895100 0.386100
vn 0.445900 0.895100 0.000000
vn -0.000000 1.000000 0.000000
vn 0.222900 0.895100 -0.386100
vn -0.222900 0.895100 -0.386100
vn -0.222900 0.895100 0.386100
vn -0.445900 0.895100 0.000000
usemtl object_004BF28C_material_14
s 1
f 49/16/39 48/17/40 52/18/41
f 46/16/42 50/17/43 52/18/41
f 52/18/41 48/16/40 47/17/44
f 47/16/44 46/17/42 52/18/41
f 52/18/41 50/16/43 51/17/45
f 51/16/45 49/17/39 52/18/41
usemtl object_004BF28C_material_9
f 39/19/46 40/20/47 41/18/48
f 42/19/49 43/20/50 41/18/48
f 44/19/51 39/20/46 41/18/48
f 45/19/52 44/20/51 41/18/48
f 40/19/47 42/20/49 41/18/48
f 43/19/50 45/20/52 41/18/48
f 46/21/42 47/22/44 39/19/46
f 39/19/46 47/22/44 40/20/47
f 48/21/40 49/22/39 42/19/49
f 42/19/49 49/22/39 43/20/50
f 50/21/43 46/22/42 44/19/51
f 44/19/51 46/22/42 39/20/46
f 51/21/45 50/22/43 45/19/52
f 45/19/52 50/22/43 44/20/51
f 47/21/44 48/22/40 40/19/47
f 40/19/47 48/22/40 42/20/49
f 49/21/39 51/22/45 43/19/50
f 43/19/50 51/22/45 45/20/52
o object_004BE29C
v -2.740000 11.029010 0.000002
v -2.740000 5.549007 0.000001
v 2.740000 11.029010 0.000002
v 2.740000 5.549007 0.000001
vt 0.000000 -0.011765
vt 0.000000 -1.000000
vt 0.984314 -0.011765
vt 0.984314 -1.000000
vn 0.000000 -0.000000 1.000000
usemtl object_004BF28C_material_35
s 1
f 53/23/53 54/24/53 55/25/53
f 55/25/53 54/24/53 56/26/53
o object_004BEAD4
v 2.712176 10.934171 -4.697625
v -2.712177 10.934171 -4.697625
v 2.069732 13.191491 -3.584879
v -2.069732 13.191491 -3.584879
v 2.692136 7.383409 -4.662914
v -2.692136 7.383409 -4.662914
v -2.069732 2.615516 -3.584881
v 2.069732 2.615516 -3.584881
v 2.712177 10.934169 4.697628
v 5.424353 10.934170 0.000002
v 2.069733 13.191489 3.584882
v 4.139463 13.191490 0.000002
v 2.692137 7.383407 4.662914
v 5.384272 7.383408 0.000001
v 4.139463 2.615516 0.000000
v 2.069733 2.615515 3.584881
v -5.424353 10.934170 0.000003
v -4.139463 13.191490 0.000003
v -5.384272 7.383408 0.000002
v -4.139463 2.615516 0.000001
v -2.712176 10.934169 4.697629
v -2.069731 13.191489 3.584883
v -2.692135 7.383407 4.662918
v -2.069731 2.615515 3.584882
vt 0.737255 -0.223529
vt 0.243137 -0.223529
vt 0.678431 -0.011765
vt 0.301961 -0.011765
vt 0.733333 -0.552941
vt 0.247059 -0.552941
vt 0.301961 -0.996078
vt 0.678431 -0.996078
vt 0.984314 -0.223529
vt 0.866667 -0.011765
vt 0.980392 -0.552941
vt 0.866667 -0.996078
vt 0.000000 -0.223529
vt 0.113725 -0.011765
vt 0.000000 -0.552941
vt 0.113725 -0.996078
vn 0.483500 0.254600 -0.837500
vn -0.483500 0.254600 -0.837500
vn 0.434500 0.494700 -0.752600
vn -0.434500 0.494700 -0.752600
vn 0.495500 -0.133400 -0.858300
vn -0.495500 -0.133400 -0.858300
vn -0.483800 -0.252600 -0.837900
vn 0.483800 -0.252600 -0.837900
vn 0.483500 0.254500 0.837500
vn 0.967100 0.254600 -0.000000
vn 0.434500 0.494700 0.752600
vn 0.869100 0.494700 -0.000000
vn 0.495500 -0.133400 0.858300
vn 0.991100 -0.133400 -0.000000
vn 0.967600 -0.252600 0.000000
vn 0.483800 -0.252600 0.837900
vn -0.967100 0.254600 -0.000000
vn -0.869100 0.494700 0.000000
vn -0.991100 -0.133400 -0.000000
vn -0.967600 -0.252600 0.000000
vn -0.483500 0.254500 0.837500
vn -0.434500 0.494700 0.752600
vn -0.495500 -0.133400 0.858300
vn -0.483800 -0.252600 0.837900
usemtl object_004BF28C_material_25
s 1
f 57/27/54 58/28/55 59/29/56
f 59/29/56 58/28/55 60/30/57
f 61/31/58 62/32/59 57/27/54
f 57/27/54 62/32/59 58/28/55
f 62/32/59 61/31/58 63/33/60
f 63/33/60 61/31/58 64/34/61
f 65/27/62 66/35/63 67/29/64
f 67/29/64 66/35/63 68/36/65
f 69/31/66 70/37/67 65/27/62
f 65/27/62 70/37/67 66/35/63
f 70/37/67 69/31/66 71/38/68
f 71/38/68 69/31/66 72/34/69
f 66/35/63 57/27/54 68/36/65
f 68/36/65 57/27/54 59/29/56
f 70/37/67 61/31/58 66/35/63
f 66/35/63 61/31/58 57/27/54
f 61/31/58 70/37/67 64/34/61
f 64/34/61 70/37/67 71/38/68
f 58/28/55 73/39/70 60/30/57
f 60/30/57 73/39/70 74/40/71
f 62/32/59 75/41/72 58/28/55
f 58/28/55 75/41/72 73/39/70
f 75/41/72 62/32/59 76/42/73
f 76/42/73 62/32/59 63/33/60
f 77/28/74 65/27/62 78/30/75
f 78/30/75 65/27/62 67/29/64
f 79/32/76 69/31/66 77/28/74
f 77/28/74 69/31/66 65/27/62
f 69/31/66 79/32/76 72/34/69
f 72/34/69 79/32/76 80/33/77
f 73/39/70 77/28/74 74/40/71
f 74/40/71 77/28/74 78/30/75
f 75/41/72 79/32/76 73/39/70
f 73/39/70 79/32/76 77/28/74
f 79/32/76 75/41/72 80/33/77
f 80/33/77 75/41/72 76/42/73
