# Blender v2.77 (sub 0) OBJ File: ''
# www.blender.org
mtllib Flying Item Box (10 Ring).mtl
o Mesh_0327
v -0.204890 0.183517 -0.354881
v 0.204890 0.183517 -0.354881
v -0.312662 0.460458 -0.541546
v 0.312662 0.460458 -0.541546
v -0.367473 0.867618 -0.636482
v 0.367473 0.867618 -0.636482
v -0.364930 1.185425 -0.632077
v 0.364930 1.185425 -0.632077
v -0.311328 1.439600 -0.539235
v 0.311327 1.439600 -0.539235
v -0.219350 1.617646 -0.379925
v 0.219350 1.617646 -0.379925
v 0.409781 0.183517 0.000000
v 0.625323 0.460458 0.000000
v 0.734947 0.867617 0.000000
v 0.729859 1.185424 0.000000
v 0.622655 1.439600 0.000000
v 0.438700 1.617646 0.000000
v 0.204890 0.183517 0.354881
v 0.312662 0.460458 0.541546
v 0.367473 0.867617 0.636482
v 0.364930 1.185424 0.632077
v 0.311328 1.439600 0.539235
v 0.219350 1.617646 0.379926
v -0.204890 0.183517 0.354881
v -0.312661 0.460458 0.541546
v -0.367473 0.867617 0.636483
v -0.364930 1.185424 0.632077
v -0.311327 1.439600 0.539235
v -0.219350 1.617646 0.379926
v -0.409781 0.183517 0.000000
v -0.625323 0.460458 0.000000
v -0.734947 0.867617 0.000000
v -0.729860 1.185424 0.000000
v -0.622655 1.439600 0.000000
v -0.438700 1.617646 0.000000
v 0.224131 1.642050 -0.388207
v 0.448263 1.642050 0.000000
v 0.175169 1.776000 -0.303401
v 0.350337 1.776000 0.000000
v -0.224131 1.642050 -0.388207
v -0.175169 1.776000 -0.303401
v -0.448263 1.642050 0.000000
v -0.350338 1.776000 0.000000
v -0.224131 1.642050 0.388207
v -0.175169 1.776000 0.303402
v 0.224131 1.642050 0.388207
v 0.175169 1.776000 0.303402
v -0.187718 1.600887 0.325138
v 0.187718 1.600887 0.325138
v 0.375436 1.600887 0.000000
v 0.425345 0.159866 0.000000
v 0.212673 0.159866 0.368360
v 0.330650 0.196119 0.000000
v 0.165325 0.196119 0.286351
v -0.212673 0.159866 0.368360
v -0.165325 0.196119 0.286351
v -0.212673 0.159866 -0.368360
v 0.212673 0.159866 -0.368360
v -0.165325 0.196119 -0.286351
v 0.165325 0.196119 -0.286351
v 0.187718 1.600887 -0.325137
v -0.187718 1.600887 -0.325137
v -0.375436 1.600887 0.000000
v 0.087584 1.818107 -0.151700
v -0.087584 1.818107 -0.151700
v -0.175169 1.818107 0.000000
v -0.087584 1.818107 0.151701
v 0.087584 1.818107 0.151701
v 0.175169 1.818107 0.000000
v 0.000000 1.840336 0.000000
v 0.184124 0.068844 0.318913
v 0.368249 0.068844 0.000000
v -0.184124 0.068844 0.318913
v -0.425345 0.159866 0.000000
v -0.368249 0.068844 0.000000
v -0.184124 0.068844 -0.318913
v 0.184124 0.068844 -0.318913
v -0.330650 0.196119 0.000000
v 0.092062 0.019879 0.159456
v -0.092062 0.019879 0.159456
v -0.184124 0.019879 0.000000
v -0.092062 0.019879 -0.159456
v 0.092062 0.019879 -0.159456
v 0.184124 0.019879 0.000000
v 0.000000 -0.003487 -0.000000
v 0.411281 0.473850 0.001097
v -0.411281 0.473850 0.001097
v 0.411281 1.207043 0.001097
v -0.411281 1.207044 0.001097
v 0.411281 0.473850 -0.001097
v 0.411281 1.207043 -0.001096
v -0.411281 0.473850 -0.001097
v -0.411281 1.207044 -0.001096
v 0.187718 1.600887 -0.325137
v -0.187718 1.600887 -0.325137
v 0.000000 1.535186 0.000000
v -0.375436 1.600887 0.000000
v -0.187718 1.600887 0.325138
v 0.187718 1.600887 0.325138
v 0.375436 1.600887 0.000000
v 0.165325 0.196119 0.286351
v -0.165325 0.196119 0.286351
v 0.000000 0.253982 0.000000
v -0.330650 0.196119 0.000000
v -0.165325 0.196119 -0.286351
v 0.165325 0.196119 -0.286351
v 0.330650 0.196119 0.000000
vt 1.0000 0.0000
vt 1.0000 1.0000
vt 0.0000 0.0000
vt 0.0000 1.0000
vt 0.0000 0.0000
vt 1.0000 0.0000
vt 0.0000 1.0000
vt 1.0000 1.0000
vt 0.7500 1.0000
vt 0.5000 0.5000
vt 0.2500 1.0000
vt 0.0000 0.5000
vt 0.2500 0.0000
vt 0.7500 0.0000
vt 1.0000 0.5000
vt 0.7500 1.0000
vt 0.5000 0.5000
vt 0.2500 1.0000
vt 0.0000 0.5000
vt 0.2500 0.0000
vt 0.7500 0.0000
vt 1.0000 0.5000
vt 1.0820 0.0000
vt 1.0820 0.2578
vt 0.9180 0.0000
vt 0.9180 0.2578
vt 1.0820 0.4961
vt 0.9180 0.4961
vt 1.0820 0.6992
vt 0.9180 0.6992
vt 1.0820 0.8828
vt 0.9180 0.8828
vt 1.0820 1.0000
vt 0.9180 1.0000
vt 0.7500 0.0000
vt 0.7500 0.2578
vt 0.7500 0.4961
vt 0.7500 0.6992
vt 0.7500 0.8828
vt 0.7500 1.0000
vt 0.5820 0.0000
vt 0.5820 0.2578
vt 0.5820 0.4961
vt 0.5820 0.6992
vt 0.5820 0.8828
vt 0.5820 1.0000
vt 0.4180 0.0000
vt 0.4180 0.2578
vt 0.4180 0.4961
vt 0.4180 0.6992
vt 0.4180 0.8828
vt 0.4180 1.0000
vt 0.2500 0.0000
vt 0.2500 0.2578
vt 0.2500 0.4961
vt 0.2500 0.6992
vt 0.2500 0.8828
vt 0.2500 1.0000
vt 0.0820 0.0000
vt 0.0820 0.2578
vt 0.0820 0.4961
vt 0.0820 0.6992
vt 0.0820 0.8828
vt 0.0820 1.0000
vt 0.9922 0.5195
vt 0.9922 0.9922
vt 0.7539 0.5195
vt 0.7539 0.9922
vt 0.9922 0.5195
vt 0.9922 0.9922
vt 0.7539 0.5195
vt 0.7539 0.9922
vt 0.9922 0.5195
vt 0.9922 0.9922
vt 0.7539 0.5195
vt 0.7539 0.9922
vt 0.9922 0.5195
vt 0.9922 0.9922
vt 0.7539 0.5195
vt 0.7539 0.9922
vt 0.9922 0.5195
vt 0.9922 0.9922
vt 0.7539 0.5195
vt 0.7539 0.9922
vt 0.9922 0.5195
vt 0.9922 0.9922
vt 0.7539 0.5195
vt 0.7539 0.9922
vt 0.0039 0.5039
vt 0.0039 0.9922
vt 0.4961 0.5039
vt 0.4961 0.9922
vt 0.0039 0.5039
vt 0.0039 0.9922
vt 0.4961 0.5039
vt 0.4961 0.9922
vt 0.0039 0.5039
vt 0.0039 0.9922
vt 0.4961 0.5039
vt 0.4961 0.9922
vt 0.0039 0.5039
vt 0.0039 0.9922
vt 0.4961 0.5039
vt 0.4961 0.9922
vt 0.0039 0.5039
vt 0.0039 0.9922
vt 0.4961 0.5039
vt 0.4961 0.9922
vt 0.0039 0.5039
vt 0.0039 0.9922
vt 0.4961 0.5039
vt 0.4961 0.9922
vt 0.0039 0.5039
vt 0.0039 0.9922
vt 0.4961 0.5039
vt 0.4961 0.9922
vt 0.0039 0.5039
vt 0.0039 0.9922
vt 0.4961 0.5039
vt 0.4961 0.9922
vt 0.8711 0.9805
vt 0.7578 0.9805
vt 0.8125 0.9766
vt 0.8125 0.9727
vt 0.7578 0.9727
vt 0.8711 0.9727
vt 0.8711 0.9688
vt 0.9297 0.9727
vt 0.9883 0.9727
vt 0.9297 0.9766
vt 0.9883 0.9805
vt 0.8711 0.9805
vt 0.8711 0.9766
vt 0.9922 0.5195
vt 0.9922 0.9922
vt 0.7539 0.5195
vt 0.7539 0.9922
vt 0.9922 0.5195
vt 0.9922 0.9922
vt 0.7539 0.5195
vt 0.7539 0.9922
vt 0.9922 0.5195
vt 0.9922 0.9922
vt 0.7539 0.5195
vt 0.7539 0.9922
vt 0.9922 0.5195
vt 0.9922 0.9922
vt 0.7539 0.5195
vt 0.7539 0.9922
vt 0.9922 0.5195
vt 0.9922 0.9922
vt 0.7539 0.5195
vt 0.7539 0.9922
vt 0.9922 0.5195
vt 0.9922 0.9922
vt 0.7539 0.5195
vt 0.7539 0.9922
vt 0.0039 0.5039
vt 0.0039 0.9922
vt 0.4961 0.5039
vt 0.4961 0.9922
vt 0.0039 0.5039
vt 0.0039 0.9922
vt 0.4961 0.5039
vt 0.4961 0.9922
vt 0.8711 0.9805
vt 0.7578 0.9805
vt 0.8125 0.9766
vt 0.8125 0.9727
vt 0.7578 0.9727
vt 0.8711 0.9727
vt 0.8711 0.9688
vt 0.9297 0.9727
vt 0.9883 0.9727
vt 0.9297 0.9766
vt 0.9883 0.9805
vt 0.8711 0.9805
vt 0.8711 0.9766
vn 0.0000 -0.0000 1.0000
vn 0.0000 0.0000 -1.0000
vn 0.0000 -0.9802 -0.1981
vn -0.1156 -0.9392 -0.3232
vn -0.1715 -0.9802 -0.0990
vn -0.2319 -0.9701 -0.0718
vn -0.1724 -0.9850 -0.0000
vn -0.1715 -0.9802 0.0990
vn 0.0000 -0.9802 0.1981
vn 0.1156 -0.9392 0.3232
vn 0.1715 -0.9802 0.0990
vn 0.2319 -0.9701 0.0718
vn 0.1724 -0.9850 0.0000
vn 0.1715 -0.9802 -0.0990
vn 0.0000 0.9802 0.1981
vn -0.1156 0.9910 0.0668
vn -0.0862 0.9850 0.1493
vn -0.1724 0.9850 0.0000
vn -0.1715 0.9802 -0.0990
vn 0.0000 0.9802 -0.1981
vn 0.1156 0.9910 -0.0668
vn 0.0862 0.9850 -0.1493
vn 0.1724 0.9850 0.0000
vn 0.1715 0.9802 0.0990
vn 0.0000 -0.5589 -0.8292
vn 0.2010 -0.5912 -0.7811
vn 0.0639 -0.3413 -0.9378
vn 0.0000 -0.4643 -0.8857
vn 0.1151 -0.2754 -0.9544
vn 0.0000 -0.2271 -0.9739
vn 0.0486 -0.0791 -0.9957
vn 0.0000 -0.1025 -0.9947
vn 0.0000 0.1695 -0.9855
vn 0.0000 0.0785 -0.9969
vn 0.1282 0.2608 -0.9568
vn 0.0000 0.3431 -0.9393
vn 0.1089 0.5114 -0.8524
vn -0.0859 0.4253 -0.9010
vn 0.0000 0.6668 -0.7452
vn -0.2240 0.6591 -0.7179
vn 0.7181 -0.5589 -0.4146
vn 0.7769 -0.5912 -0.2165
vn 0.8441 -0.3413 -0.4135
vn 0.8031 -0.3742 -0.4637
vn 0.8615 -0.1025 -0.4974
vn 0.8527 -0.1746 -0.4923
vn 0.9273 -0.0495 -0.3709
vn 0.8659 0.0139 -0.5000
vn 0.8893 0.2088 -0.4069
vn 0.8535 0.1695 -0.4928
vn 0.7585 0.4826 -0.4379
vn 0.7373 0.4253 -0.5249
vn 0.6454 0.6668 -0.3726
vn 0.5097 0.6591 -0.5529
vn 0.7181 -0.5589 0.4146
vn 0.5760 -0.5912 0.5646
vn 0.7802 -0.3413 0.5242
vn 0.8031 -0.3742 0.4637
vn 0.8615 -0.1025 0.4974
vn 0.8535 0.1695 0.4928
vn 0.7585 0.4826 0.4379
vn 0.8232 0.4253 0.3761
vn 0.6454 0.6668 0.3726
vn 0.7338 0.6591 0.1650
vn 0.0000 -0.5589 0.8292
vn -0.2010 -0.5912 0.7811
vn -0.0639 -0.3413 0.9378
vn 0.0000 -0.3742 0.9273
vn 0.0000 -0.1025 0.9947
vn 0.0000 0.1695 0.9855
vn 0.0000 0.4826 0.8758
vn 0.0859 0.4253 0.9010
vn 0.0000 0.6668 0.7452
vn 0.2240 0.6591 0.7179
vn -0.7181 -0.5589 0.4146
vn -0.7769 -0.5912 0.2165
vn -0.8441 -0.3413 0.4135
vn -0.8031 -0.3742 0.4637
vn -0.8615 -0.1025 0.4974
vn -0.8535 0.1695 0.4928
vn -0.7585 0.4826 0.4379
vn -0.7373 0.4253 0.5249
vn -0.6454 0.6668 0.3726
vn -0.5097 0.6591 0.5530
vn -0.7181 -0.5589 -0.4146
vn -0.5760 -0.5912 -0.5646
vn -0.7802 -0.3413 -0.5242
vn -0.8031 -0.3742 -0.4637
vn -0.8615 -0.1025 -0.4974
vn -0.8535 0.1695 -0.4928
vn -0.7585 0.4826 -0.4379
vn -0.8232 0.4253 -0.3761
vn -0.6454 0.6668 -0.3726
vn -0.7338 0.6591 -0.1650
vn 0.7317 0.5349 -0.4225
vn 0.7317 0.5349 -0.4224
vn 0.0000 0.5349 -0.8449
vn -0.7317 0.5349 -0.4225
vn -0.7317 0.5349 0.4225
vn -0.7317 0.5349 0.4224
vn 0.0000 0.5349 0.8449
vn 0.7317 0.5349 0.4225
vn 0.0000 -0.8374 0.5466
vn -0.0001 -0.6562 0.7546
vn 0.4733 -0.8374 0.2733
vn 0.6535 -0.6562 0.3772
vn 0.3502 0.9146 0.2022
vn 0.3136 0.9495 0.0054
vn 0.3501 0.9146 0.2022
vn 0.1788 0.9339 0.3096
vn 0.1782 0.9363 0.3027
vn 0.0000 0.9146 0.4043
vn 0.0000 0.9146 -0.4043
vn -0.0000 0.8140 -0.5809
vn 0.3501 0.9146 -0.2022
vn 0.5030 0.8140 -0.2904
vn 0.3502 0.9146 -0.2022
vn 0.4733 -0.8374 -0.2733
vn 0.4486 -0.8937 -0.0043
vn 0.2460 -0.8706 -0.4261
vn 0.2479 -0.8733 -0.4193
vn 0.0000 -0.8374 -0.5466
vn -0.4733 -0.8374 -0.2733
vn -0.4733 -0.8374 0.2733
vn 0.2316 0.9636 -0.1337
vn 0.1169 0.9723 -0.2024
vn 0.0994 0.9721 -0.2124
vn -0.1169 0.9723 -0.2024
vn -0.2337 0.9723 0.0000
vn -0.1169 0.9723 0.2024
vn 0.1169 0.9723 0.2024
vn 0.2316 0.9636 0.1337
vn 0.1572 0.9834 0.0908
vn 0.1457 0.9891 0.0221
vn 0.0977 0.9886 -0.1144
vn 0.1963 0.9740 -0.1134
vn 0.0000 0.9953 -0.0972
vn -0.0629 0.9920 -0.1090
vn -0.1256 0.9894 -0.0725
vn -0.1256 0.9894 0.0725
vn -0.0629 0.9920 0.1090
vn 0.0000 0.9953 0.0972
vn 0.0629 0.9920 0.1090
vn 0.1256 0.9894 0.0725
vn 0.7610 -0.4774 0.4394
vn 0.7610 -0.4773 0.4394
vn 0.0000 -0.4774 0.8787
vn -0.7610 -0.4774 0.4394
vn -0.7610 -0.4774 -0.4394
vn 0.0000 -0.4774 -0.8787
vn 0.7610 -0.4774 -0.4394
vn -0.3501 0.9146 0.2022
vn -0.3502 0.9146 0.2022
vn -0.3502 0.9146 -0.2022
vn -0.3501 0.9146 -0.2022
vn 0.2542 -0.9559 0.1468
vn 0.1285 -0.9664 0.2226
vn 0.1091 -0.9662 0.2337
vn -0.1285 -0.9664 0.2226
vn -0.2570 -0.9664 0.0000
vn -0.1285 -0.9664 -0.2226
vn 0.1285 -0.9664 -0.2226
vn 0.2542 -0.9559 -0.1468
vn 0.1731 -0.9798 -0.1000
vn 0.1607 -0.9867 -0.0246
vn 0.1026 -0.9878 0.1172
vn 0.2115 -0.9697 0.1221
vn 0.0000 -0.9953 0.0972
vn -0.0629 -0.9920 0.1090
vn -0.1256 -0.9894 0.0725
vn -0.1256 -0.9894 -0.0725
vn -0.0629 -0.9920 -0.1090
vn 0.0000 -0.9953 -0.0972
vn 0.0629 -0.9920 -0.1090
vn 0.1256 -0.9894 -0.0725
usemtl Tex_0085_0_dds.001
s 1
f 87/1/1 89/2/1 88/3/1
f 88/3/1 89/2/1 90/4/1
f 91/5/2 93/6/2 92/7/2
f 92/7/2 93/6/2 94/8/2
usemtl Tex_0081_0_dds.001
f 95/9/3 97/10/4 96/11/3
f 96/11/5 97/10/6 98/12/7
f 97/10/6 99/13/8 98/12/7
f 99/13/9 97/10/10 100/14/9
f 100/14/11 97/10/12 101/15/13
f 97/10/12 95/9/14 101/15/13
f 102/16/15 104/17/16 103/18/17
f 103/18/17 104/17/16 105/19/18
f 104/17/16 106/20/19 105/19/18
f 106/20/20 104/17/21 107/21/22
f 107/21/22 104/17/21 108/22/23
f 104/17/21 102/16/24 108/22/23
usemtl Tex_0083_0_dds.001
f 1/23/25 3/24/26 2/25/25
f 2/25/25 3/24/27 4/26/28
f 3/24/27 5/27/29 4/26/28
f 4/26/30 5/27/31 6/28/32
f 5/27/31 7/29/33 6/28/32
f 6/28/32 7/29/33 8/30/34
f 7/29/33 9/31/35 8/30/34
f 8/30/36 9/31/37 10/32/38
f 9/31/37 11/33/39 10/32/38
f 10/32/40 11/33/39 12/34/39
f 2/25/41 4/26/42 13/35/41
f 13/35/41 4/26/43 14/36/44
f 4/26/43 6/28/45 14/36/44
f 14/36/44 6/28/45 15/37/46
f 6/28/45 8/30/47 15/37/46
f 15/37/48 8/30/49 16/38/50
f 8/30/49 10/32/51 16/38/50
f 16/38/50 10/32/51 17/39/52
f 10/32/51 12/34/53 17/39/52
f 17/39/54 12/34/53 18/40/53
f 13/35/55 14/36/56 19/41/55
f 19/41/55 14/36/57 20/42/58
f 14/36/57 15/37/59 20/42/58
f 20/42/58 15/37/59 21/43/59
f 15/37/59 16/38/60 21/43/59
f 21/43/59 16/38/60 22/44/60
f 16/38/60 17/39/61 22/44/60
f 22/44/60 17/39/61 23/45/62
f 17/39/61 18/40/63 23/45/62
f 23/45/64 18/40/63 24/46/63
f 19/41/65 20/42/66 25/47/65
f 25/47/65 20/42/67 26/48/68
f 20/42/67 21/43/69 26/48/68
f 26/48/68 21/43/69 27/49/69
f 21/43/69 22/44/70 27/49/69
f 27/49/69 22/44/70 28/50/70
f 22/44/70 23/45/71 28/50/70
f 28/50/70 23/45/71 29/51/72
f 23/45/71 24/46/73 29/51/72
f 29/51/74 24/46/73 30/52/73
f 25/47/75 26/48/76 31/53/75
f 31/53/75 26/48/77 32/54/78
f 26/48/77 27/49/79 32/54/78
f 32/54/78 27/49/79 33/55/79
f 27/49/79 28/50/80 33/55/79
f 33/55/79 28/50/80 34/56/80
f 28/50/80 29/51/81 34/56/80
f 34/56/80 29/51/81 35/57/82
f 29/51/81 30/52/83 35/57/82
f 35/57/84 30/52/83 36/58/83
f 31/53/85 32/54/86 1/59/85
f 1/59/85 32/54/87 3/60/88
f 32/54/87 33/55/89 3/60/88
f 3/60/88 33/55/89 5/61/89
f 33/55/89 34/56/90 5/61/89
f 5/61/89 34/56/90 7/62/90
f 34/56/90 35/57/91 7/62/90
f 7/62/90 35/57/91 9/63/92
f 35/57/91 36/58/93 9/63/92
f 9/63/94 36/58/93 11/64/93
usemtl Tex_0080_0_dds
f 37/65/95 39/66/95 38/67/96
f 38/67/96 39/66/95 40/68/96
f 41/69/97 42/70/97 37/71/97
f 37/71/97 42/70/97 39/72/97
f 43/73/98 44/74/98 41/75/98
f 41/75/98 44/74/98 42/76/98
f 45/77/99 46/78/99 43/79/99
f 43/79/99 46/78/99 44/80/100
f 47/81/101 48/82/101 45/83/101
f 45/83/101 48/82/101 46/84/101
f 38/85/102 40/86/102 47/87/102
f 47/87/102 40/86/102 48/88/102
f 45/89/103 49/90/103 47/91/103
f 49/90/103 50/92/104 47/91/103
f 47/91/105 50/92/106 38/93/105
f 50/92/106 51/94/105 38/93/105
f 52/95/107 54/96/107 53/97/108
f 54/96/109 55/98/110 53/97/111
f 53/97/111 55/98/110 56/99/112
f 55/98/110 57/100/112 56/99/112
f 58/101/113 60/102/113 59/103/113
f 60/102/113 61/104/114 59/103/113
f 59/103/115 61/104/116 52/105/117
f 61/104/116 54/106/117 52/105/117
f 38/107/118 51/108/118 37/109/119
f 51/108/118 62/110/120 37/109/121
f 37/109/121 62/110/120 41/111/122
f 62/110/120 63/112/122 41/111/122
f 41/113/123 63/114/123 43/115/123
f 43/115/123 63/114/123 64/116/123
f 43/117/124 64/118/124 45/119/124
f 45/119/124 64/118/124 49/120/124
f 40/121/125 39/122/126 65/123/127
f 65/123/127 39/122/126 66/124/128
f 39/122/126 42/125/128 66/124/128
f 66/124/128 42/125/128 67/126/129
f 42/125/128 44/127/129 67/126/129
f 67/126/129 44/127/129 68/128/130
f 44/127/129 46/129/130 68/128/130
f 68/128/130 46/129/130 69/130/131
f 46/129/130 48/131/131 69/130/131
f 69/130/131 48/131/131 70/132/132
f 48/131/131 40/121/133 70/132/132
f 40/121/134 65/123/135 70/132/136
f 70/132/136 65/123/135 71/133/137
f 65/123/135 66/124/138 71/133/137
f 71/133/137 66/124/138 67/126/139
f 67/126/140 68/128/141 71/133/142
f 68/128/141 69/130/143 71/133/142
f 71/133/142 69/130/143 70/132/144
f 53/134/145 72/135/145 52/136/145
f 52/136/145 72/135/145 73/137/146
f 56/138/147 74/139/147 53/140/147
f 53/140/147 74/139/147 72/141/147
f 75/142/148 76/143/148 56/144/148
f 56/144/148 76/143/148 74/145/148
f 58/146/149 77/147/149 75/148/149
f 75/148/149 77/147/149 76/149/149
f 59/150/150 78/151/150 58/152/150
f 58/152/150 78/151/150 77/153/150
f 52/154/151 73/155/151 59/156/151
f 59/156/151 73/155/151 78/157/151
f 56/158/152 57/159/152 75/160/152
f 75/160/153 57/159/153 79/161/153
f 75/162/154 79/163/154 58/164/154
f 58/164/155 79/163/155 60/165/155
f 73/166/156 72/167/157 80/168/158
f 80/168/158 72/167/157 81/169/159
f 72/167/157 74/170/159 81/169/159
f 81/169/159 74/170/159 82/171/160
f 74/170/159 76/172/160 82/171/160
f 82/171/160 76/172/160 83/173/161
f 76/172/160 77/174/161 83/173/161
f 83/173/161 77/174/161 84/175/162
f 77/174/161 78/176/162 84/175/162
f 84/175/162 78/176/162 85/177/163
f 78/176/162 73/166/164 85/177/163
f 73/166/165 80/168/166 85/177/167
f 85/177/167 80/168/166 86/178/168
f 80/168/166 81/169/169 86/178/168
f 86/178/168 81/169/169 82/171/170
f 82/171/171 83/173/172 86/178/173
f 83/173/172 84/175/174 86/178/173
f 86/178/173 84/175/174 85/177/175
